<?xml version="1.0" encoding="UTF-8"?>
<svg width="150px" height="150px" version="1.1" viewBox="0 0 50 50" xmlns="http://www.w3.org/2000/svg">
 <path d="m25 4.5c-9.796 0-19.056 7.486-21.082 17.043-0.0060001 0.029 0.0020468 0.056937-0.0019532 0.085937-2.354 1.605-3.959 4.7541-3.959 8.3711 0 5.238 3.364 9.5 7.5 9.5 0.328 0 0.63431-0.16069 0.82031-0.42969 0.187-0.27 0.22923-0.61387 0.11523-0.92187-0.015-0.038-1.4375-3.9044-1.4375-8.6484 0-4.994 1.3541-7.4778 1.3711-7.5078 0.175-0.309 0.17214-0.68714-0.0058594-0.99414-0.177-0.309-0.50728-0.49805-0.86328-0.49805-0.422 0-0.83428 0.054625-1.2383 0.14062 2.368-8.027 10.351-14.141 18.781-14.141 7.992 0 15.689 5.5442 18.432 13.076-0.298-0.046-0.6002-0.076172-0.9082-0.076172-0.354 0-0.68233 0.18909-0.86133 0.49609-0.18 0.306-0.18081 0.68709-0.007812 0.99609 0.014 0.024 1.3691 2.5078 1.3691 7.5078 0 3.94-0.97836 7.2676-1.3184 8.3066-1.147 0.934-2.8897 2.2277-4.9277 3.3477-0.761-0.849-1.938-1.2809-3.127-1.0059l-1.7832 0.41016c-0.843 0.193-1.5586 0.7035-2.0176 1.4375-0.458 0.732-0.60416 1.6004-0.41016 2.4414 0.344 1.496 1.6803 2.5117 3.1543 2.5117 0.239 0 0.48061-0.026032 0.72461-0.082031l1.7852-0.41211c0.842-0.193 1.5576-0.70255 2.0156-1.4355 0.384-0.613 0.53484-1.3213 0.46484-2.0293 2.145-1.162 3.9865-2.5088 5.2305-3.5098 4-0.195 7.209-4.3665 7.209-9.4805 0-3.763-1.739-7.0108-4.25-8.5488-4e-3 -0.075 0.004421-0.14961-0.017579-0.22461-2.603-9.113-11.333-15.727-20.756-15.727zm-13 14.5c-0.553 0-1 0.447-1 1v12c0 0.553 0.447 1 1 1h16.045c-0.504 1.057-1.3013 2.4824-1.9023 3.4844-0.201 0.335-0.18775 0.75612 0.03125 1.0781 0.187 0.277 0.49917 0.4375 0.82617 0.4375 0.055 0 0.10906-0.004672 0.16406-0.013672 6.187-1.031 11.248-5.0351 11.461-5.2051 0.237-0.19 0.375-0.47725 0.375-0.78125v-12c0-0.553-0.447-1-1-1h-26zm1 2h24v10.502c-1.048 0.765-4.178 2.8917-7.998 4.0117 0.642-1.179 1.3265-2.5584 1.4785-3.3164 0.059-0.294-0.018031-0.59908-0.20703-0.83008-0.191-0.232-0.47344-0.36719-0.77344-0.36719h-16.5v-10zm31.121 0.82227c2.257 0.936 3.9023 3.7997 3.9023 7.1777 0 3.456-1.7235 6.3733-4.0605 7.2383 0.458-1.673 1.0605-4.4913 1.0605-7.7383 0-3.055-0.46734-5.2737-0.90234-6.6777zm-38.262 1c-0.436 1.403-0.90234 3.6227-0.90234 6.6777 0 3.247 0.60255 6.0653 1.0605 7.7383-2.337-0.865-4.0605-3.7823-4.0605-7.2383 0-3.378 1.6453-6.2417 3.9023-7.1777zm12.641 0.17773c-1.402 0-2.5 1.317-2.5 3s1.098 3 2.5 3 2.5-1.317 2.5-3-1.098-3-2.5-3zm13 0c-1.402 0-2.5 1.317-2.5 3s1.098 3 2.5 3 2.5-1.317 2.5-3-1.098-3-2.5-3zm-13 2c0.177 0 0.5 0.38 0.5 1s-0.323 1-0.5 1-0.5-0.38-0.5-1 0.323-1 0.5-1zm13 0c0.177 0 0.5 0.38 0.5 1s-0.323 1-0.5 1-0.5-0.38-0.5-1 0.323-1 0.5-1zm2.877 16.064c0.229 0 0.4553 0.064453 0.6543 0.18945 0.279 0.175 0.47288 0.44848 0.54688 0.77148s0.020703 0.65359-0.1543 0.93359c-0.175 0.279-0.44753 0.47483-0.76953 0.54883h-0.001953l-1.7832 0.41016c-0.661 0.154-1.3285-0.26374-1.4805-0.92774-0.074-0.322-0.01875-0.65259 0.15625-0.93359 0.175-0.279 0.44753-0.47483 0.76953-0.54883l1.7832-0.41016c0.093-0.021 0.1873-0.033203 0.2793-0.033203z" fill="#80cc28"/>
</svg>
