<?xml version="1.0" encoding="UTF-8"?>
<svg width="24" height="24" version="1.1" viewBox="0 0 8 8" xml:space="preserve" xmlns="http://www.w3.org/2000/svg"><path d="m1 3.3333c0.0024731-1.6698 1.3324-2.6668 3-2.6667 1.668 1.1736e-4 3.0004 1.0031 3 2.6667" fill="none" stroke="#80cc28" stroke-width=".66667"/><g fill="#80cc28"><path d="m1.1742 3.2916c-0.64441 0.1456-1.0057 0.6776-1.0075 1.3751 0.0017828 0.69746 0.46295 1.2991 1.1074 1.4447-0.11562-0.47183-0.1742-0.95729-0.17434-1.4447 1.334e-4 -0.48745-0.041157-0.90322 0.074465-1.3751z" stroke="#80cc28" stroke-linecap="round" stroke-linejoin="round" stroke-width=".33333"/><path d="m6.8259 3.2916c0.6444 0.1456 1.0057 0.6776 1.0075 1.3751-0.0017828 0.69746-0.46294 1.2991-1.1073 1.4447 0.11562-0.47183 0.1742-0.95729 0.17433-1.4447-1.334e-4 -0.48745 0.041156-0.90322-0.074464-1.3751z" stroke="#80cc28" stroke-linecap="round" stroke-linejoin="round" stroke-width=".33333"/><path d="m2.3333 3c-0.17757-2.764e-4 -0.33406 0.1515-0.33333 0.33333v1.3333c0.0012993 0.18142 0.16585 0.33531 0.33333 0.33333h2.3333c0 0.34712-0.12825 0.72561-0.32487 1.0059 0.65583-0.0031733 1.6533-0.67401 1.6582-1.0059v-1.6667c0.0016053-0.18931-0.15104-0.33337-0.33333-0.33333h-3.3333zm0.66667 0.66667a0.33333 0.33333 0 0 1 0.33333 0.33333 0.33333 0.33333 0 0 1-0.33333 0.33333 0.33333 0.33333 0 0 1-0.33333-0.33333 0.33333 0.33333 0 0 1 0.33333-0.33333zm2 0a0.33333 0.33333 0 0 1 0.33333 0.33333 0.33333 0.33333 0 0 1-0.33333 0.33333 0.33333 0.33333 0 0 1-0.33333-0.33333 0.33333 0.33333 0 0 1 0.33333-0.33333z"/></g><path d="m6.7809 6.0005c-0.1719 0.47105-0.71601 0.95458-1.1142 0.99951" fill="none" stroke="#80cc28" stroke-linecap="round" stroke-linejoin="round" stroke-width=".33333"/><rect x="4" y="6.6667" width="1.6667" height=".66667" rx=".33333" ry=".33333" fill="#80cc28"/></svg>
